<?xml version="1.0" encoding="iso-8859-1"?>
<!-- Generator: Adobe Illustrator 16.0.0, SVG Export Plug-In . SVG Version: 6.00 Build 0)  -->
<!DOCTYPE svg PUBLIC "-//W3C//DTD SVG 1.1//EN" "http://www.w3.org/Graphics/SVG/1.1/DTD/svg11.dtd">
<svg version="1.1" id="Capa_1" xmlns="http://www.w3.org/2000/svg" xmlns:xlink="http://www.w3.org/1999/xlink" x="0px" y="0px"
	 width="612px" height="612px" viewBox="0 0 612 612" style="enable-background:new 0 0 612 612;" xml:space="preserve">
<g>
	<g>
		<path d="M597.193,44.419c-8.183,0-14.807,6.624-14.807,14.806v59.226H29.613V59.225c0-8.183-6.624-14.806-14.806-14.806
			C6.624,44.419,0,51.042,0,59.225v493.549c0,8.172,6.624,14.807,14.807,14.807c8.183,0,14.806-6.635,14.806-14.807V384.968h552.774
			v167.807c0,8.172,6.624,14.807,14.807,14.807c8.184,0,14.807-6.635,14.807-14.807V59.225
			C612,51.042,605.377,44.419,597.193,44.419z M29.613,355.354V148.064h552.774v207.291H29.613z"/>
		<path d="M117.435,245.628c-20.295-5.202-28.596-7.719-28.596-15.438v-0.335c0-5.706,7.433-10.236,17.323-10.236
			c8.055,0,17.215,2.853,25.773,7.887c2.014,1.175,4.58,1.846,7.097,1.846c6.712,0,12.358-5.202,12.358-11.915
			c0-5.034-2.714-8.558-5.567-10.246c-10.572-6.712-22.18-10.404-36.443-10.404c-23.977,0.02-40.284,14.115-40.284,35.417v0.335
			c0,23.325,13.583,29.87,37.243,35.911c19.633,5.034,21.983,8.391,21.983,14.935v0.335c0,6.87-5.439,11.075-16.011,11.075
			c-11.411,0-20.67-4.027-29.563-10.572c-1.678-1.175-3.791-2.349-7.147-2.349c-6.712,0-11.963,5.202-11.963,11.914
			c0,4.027,2.073,7.719,4.926,9.733c13.089,9.397,29.751,14.086,45.189,14.086c25.339,0,44.183-13.089,44.183-36.405v-0.335
			C157.936,260.396,141.253,251.837,117.435,245.628z"/>
		<path d="M237.071,196.461c-36.236,0-59.394,27.353-59.394,60.746v0.335c0,33.383,22.822,60.399,59.068,60.399
			c36.236,0,59.384-27.352,59.384-60.735v-0.336C296.129,223.478,273.317,196.461,237.071,196.461z M266.516,257.543
			c0,20.137-13.573,36.582-34.38,36.582c-20.798,0-34.716-16.78-34.716-36.907v-0.336c0-20.127,13.573-36.572,34.38-36.572
			c20.808,0,34.716,16.771,34.716,36.908V257.543z"/>
		<path d="M394.632,296.128h-49.147v-85.729c0-7.215-2.656-12.921-9.871-12.921c-7.206,0-9.871,5.706-9.871,12.921v92.62
			c0,7.215,0.938,12.861,8.153,12.861h60.736c6.554,0,11.746-3.326,11.746-9.871C406.378,299.455,401.176,296.128,394.632,296.128z"
			/>
		<path d="M470.638,197.419h-32.88c-7.216,0-13.307,6.771-13.307,13.987v91.613c0,7.215,6.091,12.861,13.307,12.861h32.88
			c36.907,0,62.395-25.605,62.395-58.663v-0.336C533.032,223.814,507.556,197.419,470.638,197.419z M503.419,257.543
			c0,20.808-11.638,38.585-32.781,38.585h-16.573v-78.968h16.573c21.144,0,32.781,19.239,32.781,40.047V257.543z"/>
	</g>
</g>
<g>
</g>
<g>
</g>
<g>
</g>
<g>
</g>
<g>
</g>
<g>
</g>
<g>
</g>
<g>
</g>
<g>
</g>
<g>
</g>
<g>
</g>
<g>
</g>
<g>
</g>
<g>
</g>
<g>
</g>
</svg>
